<svg width="36" height="38" viewBox="0 0 36 38" fill="none" xmlns="http://www.w3.org/2000/svg">
<path d="M3.72495 33.3998C3.72635 33.9939 4.20592 34.4735 4.79995 34.475C4.80005 34.475 4.80014 34.475 4.80023 34.475M3.72495 33.3998L4.79995 34.6L4.80023 34.475M3.72495 33.3998C3.72495 33.3998 3.72495 33.3998 3.72495 33.3997V4.60028C3.72495 4.60025 3.72495 4.60021 3.72495 4.60018C3.72635 4.00609 4.20596 3.52645 4.80003 3.525H13.075V34.475M3.72495 33.3998L13.075 34.475M4.80023 34.475L13.075 34.475M4.80023 34.475L13.075 34.475M31.1999 34.475C31.7939 34.4735 32.2735 33.994 32.2749 33.4C32.2749 33.3999 32.275 33.3998 32.275 33.3997M31.1999 34.475V3.4C31.863 3.4015 32.3985 3.93699 32.3999 4.6V33.4M31.1999 34.475L31.1997 34.475L15.7249 34.475V3.525H31.1999M31.1999 34.475V34.6C31.863 34.5985 32.3984 34.063 32.3999 33.4M32.275 33.3997L32.3999 33.4M32.275 33.3997V4.60028M32.275 33.3997V4.60028M32.3999 33.4L31.1999 3.525M31.1999 3.525C31.7939 3.52645 32.2735 4.006 32.2749 4.6C32.2749 4.60009 32.275 4.60019 32.275 4.60028M31.1999 3.525L32.275 4.60028M31.2 0.875H31.1999L4.79995 0.875L4.79986 0.875C2.74339 0.876552 1.0765 2.54344 1.07495 4.59991V4.6L1.07495 33.4L1.07495 33.4001C1.0765 35.4566 2.74339 37.1235 4.79986 37.125H4.79995H31.1999H31.2C33.2565 37.1234 34.9234 35.4566 34.9249 33.4001V33.4V4.6V4.59991C34.9234 2.54344 33.2565 0.87655 31.2 0.875ZM11.4582 13.8204C11.0062 13.3684 10.311 13.3106 9.7968 13.6469V13.6055L9.58339 13.8189L5.34136 18.0625C5.09279 18.3111 4.95375 18.6489 4.95375 18.9999C4.95375 19.3508 5.09279 19.6887 5.34136 19.9373L9.58341 24.1793C10.1017 24.6976 10.9399 24.6976 11.4582 24.1793C11.975 23.6625 11.975 22.8229 11.4582 22.306L8.1521 18.9999L11.4582 15.6938C11.975 15.177 11.975 14.3373 11.4582 13.8204Z" fill="#C4C4C4" stroke="#C4C4C4" stroke-width="0.25"/>
</svg>
