<svg width="36" height="38" viewBox="0 0 36 38" fill="none" xmlns="http://www.w3.org/2000/svg">
<path d="M32.275 33.3998C32.2737 33.9939 31.7941 34.4735 31.2 34.475C31.2 34.475 31.1999 34.475 31.1998 34.475M32.275 33.3998L31.2 34.6L31.1998 34.475M32.275 33.3998C32.275 33.3998 32.275 33.3998 32.275 33.3997V4.60028C32.275 4.60025 32.275 4.60021 32.275 4.60018C32.2736 4.00609 31.794 3.52645 31.2 3.525H22.925V34.475M32.275 33.3998L22.925 34.475M31.1998 34.475L22.925 34.475M31.1998 34.475L22.925 34.475M4.80005 34.475C4.20608 34.4735 3.72655 33.994 3.72505 33.4C3.72505 33.3999 3.72505 33.3998 3.72505 33.3997M4.80005 34.475V3.4C4.13704 3.4015 3.60155 3.93699 3.60005 4.6V33.4M4.80005 34.475L4.80033 34.475L20.2751 34.475V3.525H4.80013M4.80005 34.475V34.6C4.13704 34.5985 3.60155 34.063 3.60005 33.4M3.72505 33.3997L3.60005 33.4M3.72505 33.3997V4.60028M3.72505 33.3997V4.60028M3.60005 33.4L4.80013 3.525M4.80013 3.525C4.20612 3.52645 3.72655 4.006 3.72505 4.6C3.72505 4.60009 3.72505 4.60019 3.72505 4.60028M4.80013 3.525L3.72505 4.60028M4.79996 0.875H4.80005L31.2 0.875L31.2001 0.875C33.2566 0.876552 34.9235 2.54344 34.925 4.59991V4.6L34.925 33.4L34.925 33.4001C34.9235 35.4566 33.2566 37.1235 31.2001 37.125H31.2H4.80005H4.79996C2.74349 37.1234 1.0766 35.4566 1.07505 33.4001V33.4V4.6V4.59991C1.0766 2.54344 2.74349 0.87655 4.79996 0.875ZM24.5418 13.8204C24.9938 13.3684 25.689 13.3106 26.2032 13.6469V13.6055L26.4166 13.8189L30.6586 18.0625C30.9072 18.3111 31.0462 18.6489 31.0462 18.9999C31.0462 19.3508 30.9072 19.6887 30.6586 19.9373L26.4166 24.1793C25.8983 24.6976 25.0601 24.6976 24.5418 24.1793C24.025 23.6625 24.025 22.8229 24.5418 22.306L27.8479 18.9999L24.5418 15.6938C24.025 15.177 24.025 14.3373 24.5418 13.8204Z" fill="#C4C4C4" stroke="#C4C4C4" stroke-width="0.25"/>
</svg>
