<svg width="184" height="173" viewBox="0 0 184 173" fill="none" xmlns="http://www.w3.org/2000/svg">
<path d="M53.52 75.16L107.21 21.47V0L53.52 53.69V75.16Z" fill="white"/>
<path d="M53.52 121.819L107.21 68.1293V50.7793L53.52 104.469V121.819Z" fill="#7936CA"/>
<path d="M76.78 75.1597L130.48 21.4697V3.42969L76.78 57.1197V75.1597Z" fill="#F76C5E"/>
<path d="M130.48 50.0898L76.78 103.78V121.82L130.48 68.1298V50.0898Z" fill="#00B658"/>
<path d="M2.02273 164.82V141.548H11.3409C13.053 141.548 14.4811 141.801 15.625 142.309C16.7689 142.817 17.6288 143.521 18.2045 144.423C18.7803 145.317 19.0682 146.347 19.0682 147.513C19.0682 148.423 18.8864 149.222 18.5227 149.911C18.1591 150.593 17.6591 151.154 17.0227 151.593C16.3939 152.025 15.6742 152.332 14.8636 152.513V152.741C15.75 152.779 16.5795 153.029 17.3523 153.491C18.1326 153.953 18.7652 154.601 19.25 155.434C19.7348 156.26 19.9773 157.245 19.9773 158.388C19.9773 159.623 19.6705 160.726 19.0568 161.695C18.4508 162.657 17.553 163.419 16.3636 163.979C15.1742 164.54 13.7083 164.82 11.9659 164.82H2.02273ZM6.94318 160.798H10.9545C12.3258 160.798 13.3258 160.536 13.9545 160.013C14.5833 159.483 14.8977 158.779 14.8977 157.9C14.8977 157.256 14.7424 156.688 14.4318 156.195C14.1212 155.703 13.678 155.317 13.1023 155.036C12.5341 154.756 11.8561 154.616 11.0682 154.616H6.94318V160.798ZM6.94318 151.286H10.5909C11.2652 151.286 11.8636 151.169 12.3864 150.934C12.9167 150.692 13.3333 150.351 13.6364 149.911C13.947 149.472 14.1023 148.945 14.1023 148.332C14.1023 147.491 13.803 146.813 13.2045 146.298C12.6136 145.782 11.7727 145.525 10.6818 145.525H6.94318V151.286ZM34.2812 157.388V147.366H39.1222V164.82H34.4744V161.65H34.2926C33.8987 162.673 33.2434 163.495 32.3267 164.116C31.4176 164.737 30.3078 165.048 28.9972 165.048C27.8305 165.048 26.804 164.782 25.9176 164.252C25.0313 163.722 24.3381 162.968 23.8381 161.991C23.3456 161.013 23.0956 159.843 23.0881 158.479V147.366H27.929V157.616C27.9366 158.646 28.2131 159.46 28.7585 160.059C29.304 160.657 30.035 160.957 30.9517 160.957C31.535 160.957 32.0805 160.824 32.5881 160.559C33.0956 160.286 33.5047 159.885 33.8153 159.354C34.1335 158.824 34.2888 158.169 34.2812 157.388ZM49.4261 165.104C48.1004 165.104 46.8996 164.763 45.8239 164.082C44.7557 163.392 43.9072 162.381 43.2784 161.048C42.6572 159.707 42.3466 158.063 42.3466 156.116C42.3466 154.116 42.6686 152.453 43.3125 151.127C43.9564 149.794 44.8125 148.798 45.8807 148.138C46.9564 147.472 48.1345 147.138 49.4148 147.138C50.392 147.138 51.2064 147.305 51.858 147.638C52.517 147.964 53.0473 148.373 53.4489 148.866C53.858 149.351 54.1686 149.828 54.3807 150.298H54.5284V141.548H59.358V164.82H54.5852V162.025H54.3807C54.1534 162.51 53.8314 162.991 53.4148 163.468C53.0057 163.938 52.4716 164.328 51.8125 164.638C51.161 164.949 50.3655 165.104 49.4261 165.104ZM50.9602 161.252C51.7405 161.252 52.3996 161.04 52.9375 160.616C53.483 160.184 53.8996 159.582 54.1875 158.809C54.483 158.036 54.6307 157.131 54.6307 156.093C54.6307 155.055 54.4867 154.154 54.1989 153.388C53.911 152.623 53.4943 152.032 52.9489 151.616C52.4034 151.199 51.7405 150.991 50.9602 150.991C50.1648 150.991 49.4943 151.207 48.9489 151.638C48.4034 152.07 47.9905 152.669 47.7102 153.434C47.4299 154.199 47.2898 155.085 47.2898 156.093C47.2898 157.108 47.4299 158.006 47.7102 158.786C47.9981 159.559 48.411 160.165 48.9489 160.604C49.4943 161.036 50.1648 161.252 50.9602 161.252ZM71.2017 171.729C69.6335 171.729 68.2888 171.513 67.1676 171.082C66.054 170.657 65.1676 170.078 64.5085 169.343C63.8494 168.608 63.4214 167.782 63.2244 166.866L67.7017 166.263C67.8381 166.612 68.054 166.938 68.3494 167.241C68.6449 167.544 69.035 167.786 69.5199 167.968C70.0123 168.157 70.6108 168.252 71.3153 168.252C72.3684 168.252 73.2358 167.995 73.9176 167.479C74.607 166.972 74.9517 166.12 74.9517 164.923V161.729H74.7472C74.535 162.214 74.2169 162.673 73.7926 163.104C73.3684 163.536 72.8229 163.888 72.1562 164.161C71.4896 164.434 70.6941 164.57 69.7699 164.57C68.4593 164.57 67.2661 164.267 66.1903 163.661C65.1222 163.048 64.2699 162.112 63.6335 160.854C63.0047 159.589 62.6903 157.991 62.6903 156.059C62.6903 154.082 63.0123 152.43 63.6562 151.104C64.3002 149.779 65.1563 148.786 66.2244 148.127C67.3002 147.468 68.4782 147.138 69.7585 147.138C70.7358 147.138 71.554 147.305 72.2131 147.638C72.8722 147.964 73.4025 148.373 73.804 148.866C74.2131 149.351 74.5275 149.828 74.7472 150.298H74.929V147.366H79.7358V164.991C79.7358 166.476 79.3722 167.718 78.6449 168.718C77.9176 169.718 76.91 170.468 75.6222 170.968C74.3419 171.476 72.8684 171.729 71.2017 171.729ZM71.304 160.934C72.0843 160.934 72.7434 160.741 73.2812 160.354C73.8267 159.96 74.2434 159.4 74.5312 158.673C74.8267 157.938 74.9744 157.059 74.9744 156.036C74.9744 155.013 74.8305 154.127 74.5426 153.377C74.2547 152.62 73.8381 152.032 73.2926 151.616C72.7472 151.199 72.0843 150.991 71.304 150.991C70.5085 150.991 69.8381 151.207 69.2926 151.638C68.7472 152.063 68.3343 152.654 68.054 153.411C67.7737 154.169 67.6335 155.044 67.6335 156.036C67.6335 157.044 67.7737 157.915 68.054 158.65C68.3419 159.377 68.7547 159.942 69.2926 160.343C69.8381 160.737 70.5085 160.934 71.304 160.934ZM91.5426 165.161C89.7472 165.161 88.2017 164.798 86.9062 164.07C85.6184 163.335 84.6259 162.298 83.929 160.957C83.232 159.608 82.8835 158.013 82.8835 156.173C82.8835 154.377 83.232 152.801 83.929 151.445C84.6259 150.089 85.607 149.032 86.8722 148.275C88.1449 147.517 89.6373 147.138 91.3494 147.138C92.5009 147.138 93.5729 147.324 94.5653 147.695C95.5653 148.059 96.4366 148.608 97.179 149.343C97.929 150.078 98.5123 151.002 98.929 152.116C99.3456 153.222 99.554 154.517 99.554 156.002V157.332H84.8153V154.332H94.9972C94.9972 153.635 94.8456 153.017 94.5426 152.479C94.2396 151.942 93.8191 151.521 93.2812 151.218C92.7509 150.907 92.1335 150.752 91.429 150.752C90.6941 150.752 90.0426 150.923 89.4744 151.263C88.9138 151.597 88.4744 152.048 88.1562 152.616C87.8381 153.176 87.6752 153.801 87.6676 154.491V157.343C87.6676 158.207 87.8267 158.953 88.1449 159.582C88.4706 160.21 88.929 160.695 89.5199 161.036C90.1108 161.377 90.8116 161.548 91.6222 161.548C92.16 161.548 92.6525 161.472 93.0994 161.32C93.5464 161.169 93.929 160.942 94.2472 160.638C94.5653 160.335 94.8078 159.964 94.9744 159.525L99.4517 159.82C99.2244 160.896 98.7585 161.835 98.054 162.638C97.357 163.434 96.4555 164.055 95.3494 164.502C94.2509 164.942 92.982 165.161 91.5426 165.161ZM111.997 147.366V151.002H101.486V147.366H111.997ZM103.872 143.184H108.713V159.457C108.713 159.904 108.781 160.252 108.918 160.502C109.054 160.745 109.243 160.915 109.486 161.013C109.736 161.112 110.024 161.161 110.349 161.161C110.577 161.161 110.804 161.142 111.031 161.104C111.259 161.059 111.433 161.025 111.554 161.002L112.315 164.604C112.073 164.68 111.732 164.767 111.293 164.866C110.853 164.972 110.319 165.036 109.69 165.059C108.524 165.104 107.501 164.949 106.622 164.593C105.751 164.237 105.073 163.684 104.588 162.934C104.103 162.184 103.865 161.237 103.872 160.093V143.184ZM115.616 164.82V141.548H120.537V151.15H130.526V141.548H135.435V164.82H130.526V155.207H120.537V164.82H115.616ZM139.401 164.82V147.366H144.241V164.82H139.401ZM141.832 145.116C141.113 145.116 140.495 144.877 139.98 144.4C139.473 143.915 139.219 143.335 139.219 142.661C139.219 141.995 139.473 141.423 139.98 140.945C140.495 140.46 141.113 140.218 141.832 140.218C142.552 140.218 143.166 140.46 143.673 140.945C144.188 141.423 144.446 141.995 144.446 142.661C144.446 143.335 144.188 143.915 143.673 144.4C143.166 144.877 142.552 145.116 141.832 145.116ZM164.392 147.366L158.29 164.82H152.835L146.733 147.366H151.847L155.472 159.854H155.653L159.267 147.366H164.392ZM174.261 165.161C172.466 165.161 170.92 164.798 169.625 164.07C168.337 163.335 167.345 162.298 166.648 160.957C165.951 159.608 165.602 158.013 165.602 156.173C165.602 154.377 165.951 152.801 166.648 151.445C167.345 150.089 168.326 149.032 169.591 148.275C170.864 147.517 172.356 147.138 174.068 147.138C175.22 147.138 176.292 147.324 177.284 147.695C178.284 148.059 179.155 148.608 179.898 149.343C180.648 150.078 181.231 151.002 181.648 152.116C182.064 153.222 182.273 154.517 182.273 156.002V157.332H167.534V154.332H177.716C177.716 153.635 177.564 153.017 177.261 152.479C176.958 151.942 176.538 151.521 176 151.218C175.47 150.907 174.852 150.752 174.148 150.752C173.413 150.752 172.761 150.923 172.193 151.263C171.633 151.597 171.193 152.048 170.875 152.616C170.557 153.176 170.394 153.801 170.386 154.491V157.343C170.386 158.207 170.545 158.953 170.864 159.582C171.189 160.21 171.648 160.695 172.239 161.036C172.83 161.377 173.53 161.548 174.341 161.548C174.879 161.548 175.371 161.472 175.818 161.32C176.265 161.169 176.648 160.942 176.966 160.638C177.284 160.335 177.527 159.964 177.693 159.525L182.17 159.82C181.943 160.896 181.477 161.835 180.773 162.638C180.076 163.434 179.174 164.055 178.068 164.502C176.97 164.942 175.701 165.161 174.261 165.161Z" fill="white"/>
</svg>
