<svg width="273" height="122" viewBox="0 0 273 122" fill="none" xmlns="http://www.w3.org/2000/svg">
<path d="M0 75.16L53.69 21.47V0L0 53.69V75.16Z" fill="white"/>
<path d="M0 121.819L53.69 68.1293V50.7793L0 104.469V121.819Z" fill="#7936CA"/>
<path d="M23.26 75.1597L76.96 21.4697V3.42969L23.26 57.1197V75.1597Z" fill="#F76C5E"/>
<path d="M76.96 50.0898L23.26 103.78V121.82L76.96 68.1298V50.0898Z" fill="#00B658"/>
<path d="M90.9827 72.4102V49.1374H100.301C102.013 49.1374 103.441 49.3912 104.585 49.8988C105.729 50.4064 106.589 51.1109 107.165 52.0124C107.74 52.9064 108.028 53.9367 108.028 55.1033C108.028 56.0124 107.846 56.8117 107.483 57.5011C107.119 58.1829 106.619 58.7435 105.983 59.1829C105.354 59.6147 104.634 59.9215 103.824 60.1033V60.3306C104.71 60.3685 105.54 60.6185 106.312 61.0806C107.093 61.5427 107.725 62.1905 108.21 63.0238C108.695 63.8495 108.937 64.8344 108.937 65.9783C108.937 67.2132 108.63 68.3155 108.017 69.2852C107.411 70.2473 106.513 71.0086 105.324 71.5692C104.134 72.1299 102.668 72.4102 100.926 72.4102H90.9827ZM95.9031 68.3874H99.9145C101.286 68.3874 102.286 68.1261 102.915 67.6033C103.543 67.073 103.858 66.3685 103.858 65.4897C103.858 64.8458 103.702 64.2776 103.392 63.7852C103.081 63.2927 102.638 62.9064 102.062 62.6261C101.494 62.3458 100.816 62.2056 100.028 62.2056H95.9031V68.3874ZM95.9031 58.8761H99.5509C100.225 58.8761 100.824 58.7586 101.346 58.5238C101.877 58.2814 102.293 57.9405 102.596 57.5011C102.907 57.0617 103.062 56.5352 103.062 55.9215C103.062 55.0806 102.763 54.4026 102.165 53.8874C101.574 53.3723 100.733 53.1147 99.6418 53.1147H95.9031V58.8761ZM123.241 64.9783V54.9556H128.082V72.4102H123.434V69.2397H123.253C122.859 70.2624 122.203 71.0844 121.287 71.7056C120.378 72.3268 119.268 72.6374 117.957 72.6374C116.79 72.6374 115.764 72.3723 114.878 71.842C113.991 71.3117 113.298 70.5579 112.798 69.5806C112.306 68.6033 112.056 67.4329 112.048 66.0692V54.9556H116.889V65.2056C116.897 66.2359 117.173 67.0503 117.718 67.6488C118.264 68.2473 118.995 68.5465 119.912 68.5465C120.495 68.5465 121.04 68.4139 121.548 68.1488C122.056 67.8761 122.465 67.4746 122.775 66.9442C123.093 66.4139 123.249 65.7586 123.241 64.9783ZM138.386 72.6942C137.06 72.6942 135.86 72.3533 134.784 71.6715C133.716 70.9821 132.867 69.9708 132.238 68.6374C131.617 67.2965 131.307 65.6526 131.307 63.7056C131.307 61.7056 131.629 60.0427 132.272 58.717C132.916 57.3836 133.772 56.3874 134.841 55.7283C135.916 55.0617 137.094 54.7283 138.375 54.7283C139.352 54.7283 140.166 54.895 140.818 55.2283C141.477 55.5541 142.007 55.9632 142.409 56.4556C142.818 56.9405 143.129 57.4177 143.341 57.8874H143.488V49.1374H148.318V72.4102H143.545V69.6147H143.341C143.113 70.0996 142.791 70.5806 142.375 71.0579C141.966 71.5276 141.432 71.9177 140.772 72.2283C140.121 72.5389 139.325 72.6942 138.386 72.6942ZM139.92 68.842C140.7 68.842 141.36 68.6299 141.897 68.2056C142.443 67.7738 142.86 67.1715 143.147 66.3988C143.443 65.6261 143.591 64.7208 143.591 63.6829C143.591 62.645 143.447 61.7435 143.159 60.9783C142.871 60.2132 142.454 59.6223 141.909 59.2056C141.363 58.7889 140.7 58.5806 139.92 58.5806C139.125 58.5806 138.454 58.7965 137.909 59.2283C137.363 59.6602 136.95 60.2586 136.67 61.0238C136.39 61.7889 136.25 62.6753 136.25 63.6829C136.25 64.698 136.39 65.5958 136.67 66.3761C136.958 67.1488 137.371 67.7549 137.909 68.1942C138.454 68.6261 139.125 68.842 139.92 68.842ZM160.162 79.3192C158.593 79.3192 157.249 79.1033 156.128 78.6715C155.014 78.2473 154.128 77.6677 153.468 76.9329C152.809 76.198 152.381 75.3723 152.184 74.4556L156.662 73.8533C156.798 74.2018 157.014 74.5276 157.309 74.8306C157.605 75.1336 157.995 75.3761 158.48 75.5579C158.972 75.7473 159.571 75.842 160.275 75.842C161.328 75.842 162.196 75.5844 162.878 75.0692C163.567 74.5617 163.912 73.7094 163.912 72.5124V69.3192H163.707C163.495 69.8041 163.177 70.2624 162.753 70.6942C162.328 71.1261 161.783 71.4783 161.116 71.7511C160.45 72.0238 159.654 72.1602 158.73 72.1602C157.419 72.1602 156.226 71.8571 155.15 71.2511C154.082 70.6374 153.23 69.7018 152.593 68.4442C151.965 67.1791 151.65 65.5806 151.65 63.6488C151.65 61.6715 151.972 60.02 152.616 58.6942C153.26 57.3685 154.116 56.3761 155.184 55.717C156.26 55.0579 157.438 54.7283 158.718 54.7283C159.696 54.7283 160.514 54.895 161.173 55.2283C161.832 55.5541 162.362 55.9632 162.764 56.4556C163.173 56.9405 163.487 57.4177 163.707 57.8874H163.889V54.9556H168.696V72.5806C168.696 74.0655 168.332 75.3079 167.605 76.3079C166.878 77.3079 165.87 78.0579 164.582 78.5579C163.302 79.0655 161.828 79.3192 160.162 79.3192ZM160.264 68.5238C161.044 68.5238 161.703 68.3306 162.241 67.9442C162.787 67.5503 163.203 66.9897 163.491 66.2624C163.787 65.5276 163.934 64.6488 163.934 63.6261C163.934 62.6033 163.79 61.717 163.503 60.967C163.215 60.2094 162.798 59.6223 162.253 59.2056C161.707 58.7889 161.044 58.5806 160.264 58.5806C159.468 58.5806 158.798 58.7965 158.253 59.2283C157.707 59.6526 157.294 60.2435 157.014 61.0011C156.734 61.7586 156.593 62.6336 156.593 63.6261C156.593 64.6336 156.734 65.5049 157.014 66.2397C157.302 66.967 157.715 67.5314 158.253 67.9329C158.798 68.3268 159.468 68.5238 160.264 68.5238ZM180.503 72.7511C178.707 72.7511 177.162 72.3874 175.866 71.6602C174.578 70.9253 173.586 69.8874 172.889 68.5465C172.192 67.198 171.843 65.6033 171.843 63.7624C171.843 61.967 172.192 60.3912 172.889 59.0352C173.586 57.6791 174.567 56.6223 175.832 55.8647C177.105 55.1071 178.597 54.7283 180.309 54.7283C181.461 54.7283 182.533 54.9139 183.525 55.2852C184.525 55.6488 185.397 56.198 186.139 56.9329C186.889 57.6677 187.472 58.592 187.889 59.7056C188.306 60.8117 188.514 62.1071 188.514 63.592V64.9215H173.775V61.9215H183.957C183.957 61.2245 183.806 60.6071 183.503 60.0692C183.2 59.5314 182.779 59.1109 182.241 58.8079C181.711 58.4973 181.093 58.342 180.389 58.342C179.654 58.342 179.003 58.5124 178.434 58.8533C177.874 59.1867 177.434 59.6374 177.116 60.2056C176.798 60.7662 176.635 61.3912 176.628 62.0806V64.9329C176.628 65.7965 176.787 66.5427 177.105 67.1715C177.431 67.8003 177.889 68.2852 178.48 68.6261C179.071 68.967 179.772 69.1374 180.582 69.1374C181.12 69.1374 181.612 69.0617 182.059 68.9102C182.506 68.7586 182.889 68.5314 183.207 68.2283C183.525 67.9253 183.768 67.5541 183.934 67.1147L188.412 67.4102C188.184 68.4859 187.718 69.4253 187.014 70.2283C186.317 71.0238 185.415 71.645 184.309 72.092C183.211 72.5314 181.942 72.7511 180.503 72.7511ZM200.957 54.9556V58.592H190.446V54.9556H200.957ZM192.832 50.7738H197.673V67.0465C197.673 67.4935 197.741 67.842 197.878 68.092C198.014 68.3344 198.203 68.5049 198.446 68.6033C198.696 68.7018 198.984 68.7511 199.309 68.7511C199.537 68.7511 199.764 68.7321 199.991 68.6942C200.218 68.6488 200.393 68.6147 200.514 68.592L201.275 72.1942C201.033 72.27 200.692 72.3571 200.253 72.4556C199.813 72.5617 199.279 72.6261 198.65 72.6488C197.484 72.6942 196.461 72.5389 195.582 72.1829C194.711 71.8268 194.033 71.2738 193.548 70.5238C193.063 69.7738 192.825 68.8268 192.832 67.6829V50.7738ZM204.576 72.4102V49.1374H209.497V58.7397H219.486V49.1374H224.395V72.4102H219.486V62.7965H209.497V72.4102H204.576ZM228.361 72.4102V54.9556H233.201V72.4102H228.361ZM230.792 52.7056C230.073 52.7056 229.455 52.467 228.94 51.9897C228.432 51.5049 228.179 50.9253 228.179 50.2511C228.179 49.5844 228.432 49.0124 228.94 48.5352C229.455 48.0503 230.073 47.8079 230.792 47.8079C231.512 47.8079 232.126 48.0503 232.633 48.5352C233.148 49.0124 233.406 49.5844 233.406 50.2511C233.406 50.9253 233.148 51.5049 232.633 51.9897C232.126 52.467 231.512 52.7056 230.792 52.7056ZM253.352 54.9556L247.25 72.4102H241.795L235.693 54.9556H240.807L244.432 67.4442H244.613L248.227 54.9556H253.352ZM263.221 72.7511C261.426 72.7511 259.88 72.3874 258.585 71.6602C257.297 70.9253 256.305 69.8874 255.608 68.5465C254.911 67.198 254.562 65.6033 254.562 63.7624C254.562 61.967 254.911 60.3912 255.608 59.0352C256.305 57.6791 257.286 56.6223 258.551 55.8647C259.824 55.1071 261.316 54.7283 263.028 54.7283C264.18 54.7283 265.252 54.9139 266.244 55.2852C267.244 55.6488 268.115 56.198 268.858 56.9329C269.608 57.6677 270.191 58.592 270.608 59.7056C271.024 60.8117 271.233 62.1071 271.233 63.592V64.9215H256.494V61.9215H266.676C266.676 61.2245 266.524 60.6071 266.221 60.0692C265.918 59.5314 265.498 59.1109 264.96 58.8079C264.43 58.4973 263.812 58.342 263.108 58.342C262.373 58.342 261.721 58.5124 261.153 58.8533C260.593 59.1867 260.153 59.6374 259.835 60.2056C259.517 60.7662 259.354 61.3912 259.346 62.0806V64.9329C259.346 65.7965 259.505 66.5427 259.824 67.1715C260.149 67.8003 260.608 68.2852 261.199 68.6261C261.79 68.967 262.49 69.1374 263.301 69.1374C263.839 69.1374 264.331 69.0617 264.778 68.9102C265.225 68.7586 265.608 68.5314 265.926 68.2283C266.244 67.9253 266.486 67.5541 266.653 67.1147L271.13 67.4102C270.903 68.4859 270.437 69.4253 269.733 70.2283C269.036 71.0238 268.134 71.645 267.028 72.092C265.93 72.5314 264.661 72.7511 263.221 72.7511Z" fill="white"/>
</svg>
