<svg width="184" height="170" viewBox="0 0 184 170" fill="none" xmlns="http://www.w3.org/2000/svg">
<path d="M53.52 75.16L107.21 21.47V0L53.52 53.69V75.16Z" fill="white"/>
<path d="M53.52 121.819L107.21 68.1293V50.7793L53.52 104.469V121.819Z" fill="#7936CA"/>
<path d="M76.78 75.1597L130.48 21.4697V3.42969L76.78 57.1197V75.1597Z" fill="#F76C5E"/>
<path d="M130.48 50.0898L76.78 103.78V121.82L130.48 68.1298V50.0898Z" fill="#00B658"/>
<path d="M2.02273 161.82V138.548H11.3409C13.053 138.548 14.4811 138.801 15.625 139.309C16.7689 139.817 17.6288 140.521 18.2045 141.423C18.7803 142.317 19.0682 143.347 19.0682 144.513C19.0682 145.423 18.8864 146.222 18.5227 146.911C18.1591 147.593 17.6591 148.154 17.0227 148.593C16.3939 149.025 15.6742 149.332 14.8636 149.513V149.741C15.75 149.779 16.5795 150.029 17.3523 150.491C18.1326 150.953 18.7652 151.601 19.25 152.434C19.7348 153.26 19.9773 154.245 19.9773 155.388C19.9773 156.623 19.6705 157.726 19.0568 158.695C18.4508 159.657 17.553 160.419 16.3636 160.979C15.1742 161.54 13.7083 161.82 11.9659 161.82H2.02273ZM6.94318 157.798H10.9545C12.3258 157.798 13.3258 157.536 13.9545 157.013C14.5833 156.483 14.8977 155.779 14.8977 154.9C14.8977 154.256 14.7424 153.688 14.4318 153.195C14.1212 152.703 13.678 152.317 13.1023 152.036C12.5341 151.756 11.8561 151.616 11.0682 151.616H6.94318V157.798ZM6.94318 148.286H10.5909C11.2652 148.286 11.8636 148.169 12.3864 147.934C12.9167 147.692 13.3333 147.351 13.6364 146.911C13.947 146.472 14.1023 145.945 14.1023 145.332C14.1023 144.491 13.803 143.813 13.2045 143.298C12.6136 142.782 11.7727 142.525 10.6818 142.525H6.94318V148.286ZM34.2812 154.388V144.366H39.1222V161.82H34.4744V158.65H34.2926C33.8987 159.673 33.2434 160.495 32.3267 161.116C31.4176 161.737 30.3078 162.048 28.9972 162.048C27.8305 162.048 26.804 161.782 25.9176 161.252C25.0313 160.722 24.3381 159.968 23.8381 158.991C23.3456 158.013 23.0956 156.843 23.0881 155.479V144.366H27.929V154.616C27.9366 155.646 28.2131 156.46 28.7585 157.059C29.304 157.657 30.035 157.957 30.9517 157.957C31.535 157.957 32.0805 157.824 32.5881 157.559C33.0956 157.286 33.5047 156.885 33.8153 156.354C34.1335 155.824 34.2888 155.169 34.2812 154.388ZM49.4261 162.104C48.1004 162.104 46.8996 161.763 45.8239 161.082C44.7557 160.392 43.9072 159.381 43.2784 158.048C42.6572 156.707 42.3466 155.063 42.3466 153.116C42.3466 151.116 42.6686 149.453 43.3125 148.127C43.9564 146.794 44.8125 145.798 45.8807 145.138C46.9564 144.472 48.1345 144.138 49.4148 144.138C50.392 144.138 51.2064 144.305 51.858 144.638C52.517 144.964 53.0473 145.373 53.4489 145.866C53.858 146.351 54.1686 146.828 54.3807 147.298H54.5284V138.548H59.358V161.82H54.5852V159.025H54.3807C54.1534 159.51 53.8314 159.991 53.4148 160.468C53.0057 160.938 52.4716 161.328 51.8125 161.638C51.161 161.949 50.3655 162.104 49.4261 162.104ZM50.9602 158.252C51.7405 158.252 52.3996 158.04 52.9375 157.616C53.483 157.184 53.8996 156.582 54.1875 155.809C54.483 155.036 54.6307 154.131 54.6307 153.093C54.6307 152.055 54.4867 151.154 54.1989 150.388C53.911 149.623 53.4943 149.032 52.9489 148.616C52.4034 148.199 51.7405 147.991 50.9602 147.991C50.1648 147.991 49.4943 148.207 48.9489 148.638C48.4034 149.07 47.9905 149.669 47.7102 150.434C47.4299 151.199 47.2898 152.085 47.2898 153.093C47.2898 154.108 47.4299 155.006 47.7102 155.786C47.9981 156.559 48.411 157.165 48.9489 157.604C49.4943 158.036 50.1648 158.252 50.9602 158.252ZM71.2017 168.729C69.6335 168.729 68.2888 168.513 67.1676 168.082C66.054 167.657 65.1676 167.078 64.5085 166.343C63.8494 165.608 63.4214 164.782 63.2244 163.866L67.7017 163.263C67.8381 163.612 68.054 163.938 68.3494 164.241C68.6449 164.544 69.035 164.786 69.5199 164.968C70.0123 165.157 70.6108 165.252 71.3153 165.252C72.3684 165.252 73.2358 164.995 73.9176 164.479C74.607 163.972 74.9517 163.12 74.9517 161.923V158.729H74.7472C74.535 159.214 74.2169 159.673 73.7926 160.104C73.3684 160.536 72.8229 160.888 72.1562 161.161C71.4896 161.434 70.6941 161.57 69.7699 161.57C68.4593 161.57 67.2661 161.267 66.1903 160.661C65.1222 160.048 64.2699 159.112 63.6335 157.854C63.0047 156.589 62.6903 154.991 62.6903 153.059C62.6903 151.082 63.0123 149.43 63.6562 148.104C64.3002 146.779 65.1563 145.786 66.2244 145.127C67.3002 144.468 68.4782 144.138 69.7585 144.138C70.7358 144.138 71.554 144.305 72.2131 144.638C72.8722 144.964 73.4025 145.373 73.804 145.866C74.2131 146.351 74.5275 146.828 74.7472 147.298H74.929V144.366H79.7358V161.991C79.7358 163.476 79.3722 164.718 78.6449 165.718C77.9176 166.718 76.91 167.468 75.6222 167.968C74.3419 168.476 72.8684 168.729 71.2017 168.729ZM71.304 157.934C72.0843 157.934 72.7434 157.741 73.2812 157.354C73.8267 156.96 74.2434 156.4 74.5312 155.673C74.8267 154.938 74.9744 154.059 74.9744 153.036C74.9744 152.013 74.8305 151.127 74.5426 150.377C74.2547 149.62 73.8381 149.032 73.2926 148.616C72.7472 148.199 72.0843 147.991 71.304 147.991C70.5085 147.991 69.8381 148.207 69.2926 148.638C68.7472 149.063 68.3343 149.654 68.054 150.411C67.7737 151.169 67.6335 152.044 67.6335 153.036C67.6335 154.044 67.7737 154.915 68.054 155.65C68.3419 156.377 68.7547 156.942 69.2926 157.343C69.8381 157.737 70.5085 157.934 71.304 157.934ZM91.5426 162.161C89.7472 162.161 88.2017 161.798 86.9062 161.07C85.6184 160.335 84.6259 159.298 83.929 157.957C83.232 156.608 82.8835 155.013 82.8835 153.173C82.8835 151.377 83.232 149.801 83.929 148.445C84.6259 147.089 85.607 146.032 86.8722 145.275C88.1449 144.517 89.6373 144.138 91.3494 144.138C92.5009 144.138 93.5729 144.324 94.5653 144.695C95.5653 145.059 96.4366 145.608 97.179 146.343C97.929 147.078 98.5123 148.002 98.929 149.116C99.3456 150.222 99.554 151.517 99.554 153.002V154.332H84.8153V151.332H94.9972C94.9972 150.635 94.8456 150.017 94.5426 149.479C94.2396 148.942 93.8191 148.521 93.2812 148.218C92.7509 147.907 92.1335 147.752 91.429 147.752C90.6941 147.752 90.0426 147.923 89.4744 148.263C88.9138 148.597 88.4744 149.048 88.1562 149.616C87.8381 150.176 87.6752 150.801 87.6676 151.491V154.343C87.6676 155.207 87.8267 155.953 88.1449 156.582C88.4706 157.21 88.929 157.695 89.5199 158.036C90.1108 158.377 90.8116 158.548 91.6222 158.548C92.16 158.548 92.6525 158.472 93.0994 158.32C93.5464 158.169 93.929 157.942 94.2472 157.638C94.5653 157.335 94.8078 156.964 94.9744 156.525L99.4517 156.82C99.2244 157.896 98.7585 158.835 98.054 159.638C97.357 160.434 96.4555 161.055 95.3494 161.502C94.2509 161.942 92.982 162.161 91.5426 162.161ZM111.997 144.366V148.002H101.486V144.366H111.997ZM103.872 140.184H108.713V156.457C108.713 156.904 108.781 157.252 108.918 157.502C109.054 157.745 109.243 157.915 109.486 158.013C109.736 158.112 110.024 158.161 110.349 158.161C110.577 158.161 110.804 158.142 111.031 158.104C111.259 158.059 111.433 158.025 111.554 158.002L112.315 161.604C112.073 161.68 111.732 161.767 111.293 161.866C110.853 161.972 110.319 162.036 109.69 162.059C108.524 162.104 107.501 161.949 106.622 161.593C105.751 161.237 105.073 160.684 104.588 159.934C104.103 159.184 103.865 158.237 103.872 157.093V140.184ZM115.616 161.82V138.548H120.537V148.15H130.526V138.548H135.435V161.82H130.526V152.207H120.537V161.82H115.616ZM139.401 161.82V144.366H144.241V161.82H139.401ZM141.832 142.116C141.113 142.116 140.495 141.877 139.98 141.4C139.473 140.915 139.219 140.335 139.219 139.661C139.219 138.995 139.473 138.423 139.98 137.945C140.495 137.46 141.113 137.218 141.832 137.218C142.552 137.218 143.166 137.46 143.673 137.945C144.188 138.423 144.446 138.995 144.446 139.661C144.446 140.335 144.188 140.915 143.673 141.4C143.166 141.877 142.552 142.116 141.832 142.116ZM164.392 144.366L158.29 161.82H152.835L146.733 144.366H151.847L155.472 156.854H155.653L159.267 144.366H164.392ZM174.261 162.161C172.466 162.161 170.92 161.798 169.625 161.07C168.337 160.335 167.345 159.298 166.648 157.957C165.951 156.608 165.602 155.013 165.602 153.173C165.602 151.377 165.951 149.801 166.648 148.445C167.345 147.089 168.326 146.032 169.591 145.275C170.864 144.517 172.356 144.138 174.068 144.138C175.22 144.138 176.292 144.324 177.284 144.695C178.284 145.059 179.155 145.608 179.898 146.343C180.648 147.078 181.231 148.002 181.648 149.116C182.064 150.222 182.273 151.517 182.273 153.002V154.332H167.534V151.332H177.716C177.716 150.635 177.564 150.017 177.261 149.479C176.958 148.942 176.538 148.521 176 148.218C175.47 147.907 174.852 147.752 174.148 147.752C173.413 147.752 172.761 147.923 172.193 148.263C171.633 148.597 171.193 149.048 170.875 149.616C170.557 150.176 170.394 150.801 170.386 151.491V154.343C170.386 155.207 170.545 155.953 170.864 156.582C171.189 157.21 171.648 157.695 172.239 158.036C172.83 158.377 173.53 158.548 174.341 158.548C174.879 158.548 175.371 158.472 175.818 158.32C176.265 158.169 176.648 157.942 176.966 157.638C177.284 157.335 177.527 156.964 177.693 156.525L182.17 156.82C181.943 157.896 181.477 158.835 180.773 159.638C180.076 160.434 179.174 161.055 178.068 161.502C176.97 161.942 175.701 162.161 174.261 162.161Z" fill="white"/>
</svg>
