<svg width="24" height="24" viewBox="0 0 24 24" fill="none" xmlns="http://www.w3.org/2000/svg">
<mask id="path-1-outside-1_852_20934" maskUnits="userSpaceOnUse" x="2.5" y="4.18359" width="18" height="15" fill="black">
<rect fill="white" x="2.5" y="4.18359" width="18" height="15"/>
<path d="M3.92108 7.51902C3.68886 7.51902 3.50005 7.33021 3.50005 7.09798C3.50005 6.86576 3.68886 6.67695 3.92108 6.67695H5.80327V6.44472C5.80327 6.09803 5.94537 5.78225 6.17365 5.55397C6.40193 5.32568 6.71771 5.18359 7.0644 5.18359H8.37158C8.71827 5.18359 9.03405 5.32569 9.26233 5.55397C9.49062 5.78225 9.63271 6.09803 9.63271 6.44472V6.67695H19.0783C19.3106 6.67695 19.4994 6.86576 19.4994 7.09798C19.4994 7.33021 19.3106 7.51902 19.0783 7.51902H9.63271V7.75124C9.63271 8.09597 9.49061 8.41174 9.26233 8.64067L9.26102 8.64198C9.03142 8.87092 8.7163 9.01236 8.37159 9.01236H7.06442C6.71772 9.01236 6.40195 8.87026 6.17366 8.64198C5.94538 8.41371 5.80329 8.09792 5.80329 7.75123V7.519L3.92108 7.51902ZM10.8464 14.4285H12.1536C12.5003 14.4285 12.8161 14.5706 13.0443 14.7989C13.2726 15.0272 13.4147 15.3429 13.4147 15.6896V15.9219H19.079C19.3112 15.9219 19.5 16.1107 19.5 16.3429C19.5 16.5751 19.3112 16.7639 19.079 16.7639H13.4147V16.9962C13.4147 17.3429 13.2726 17.6586 13.0443 17.8869C12.8161 18.1152 12.5003 18.2573 12.1536 18.2573H10.8464C10.4997 18.2573 10.1839 18.1152 9.95566 17.8869C9.72737 17.6586 9.58528 17.3429 9.58528 16.9962V16.7639H3.92171C3.68948 16.7639 3.50067 16.5751 3.50067 16.3429C3.50067 16.1107 3.68948 15.9219 3.92171 15.9219H9.58528V15.6896C9.58528 15.3449 9.72738 15.0291 9.95566 14.8002L9.95697 14.7989C10.1866 14.57 10.5017 14.4285 10.8464 14.4285ZM12.1536 15.2706H10.8464C10.7306 15.2706 10.626 15.3173 10.551 15.3923L10.5497 15.3936C10.4747 15.4686 10.428 15.5732 10.428 15.689V16.9955C10.428 17.11 10.4754 17.2152 10.551 17.2909C10.6267 17.3665 10.7319 17.4139 10.8464 17.4139H12.1536C12.2681 17.4139 12.3733 17.3665 12.449 17.2909C12.5246 17.2152 12.572 17.11 12.572 16.9955V15.689C12.572 15.5745 12.5246 15.4693 12.449 15.3936C12.3727 15.3173 12.2681 15.2706 12.1536 15.2706ZM15.9356 10.6478H14.6285C14.514 10.6478 14.4087 10.6952 14.3331 10.7708C14.2574 10.8465 14.2101 10.9517 14.2101 11.0662V12.3727C14.2101 12.4872 14.2574 12.5924 14.3331 12.6681C14.4094 12.7444 14.514 12.7911 14.6285 12.7911H15.9356C16.0514 12.7911 16.156 12.7444 16.231 12.6694L16.2323 12.6681C16.3073 12.5931 16.3541 12.4885 16.3541 12.3727V11.0662C16.3541 10.9504 16.3073 10.8458 16.2323 10.7708L16.231 10.7695C16.156 10.6945 16.0514 10.6478 15.9356 10.6478ZM14.6285 9.80573H15.9356C16.2804 9.80573 16.5948 9.94717 16.8238 10.1755L16.8251 10.1768C17.0547 10.4064 17.1961 10.7215 17.1961 11.0669V11.2991H19.0783C19.3105 11.2991 19.4993 11.4879 19.4993 11.7201C19.4993 11.9524 19.3105 12.1412 19.0783 12.1412H17.1961V12.3734C17.1961 12.7181 17.0547 13.0326 16.8264 13.2615L16.8251 13.2628C16.5955 13.4924 16.2804 13.6338 15.935 13.6338H14.6278C14.2811 13.6338 13.9653 13.4917 13.737 13.2635C13.5088 13.0352 13.3667 12.7194 13.3667 12.3727V12.1405H3.92103C3.68881 12.1405 3.5 11.9517 3.5 11.7195C3.5 11.4872 3.68881 11.2984 3.92103 11.2984H13.3667V11.0662C13.3667 10.7195 13.5088 10.4037 13.737 10.1754C13.9653 9.94716 14.2811 9.80506 14.6278 9.80506L14.6285 9.80573ZM8.37158 6.02569H7.0644C6.94993 6.02569 6.84467 6.07306 6.76902 6.14872C6.69337 6.22437 6.646 6.32963 6.646 6.4441V7.75061C6.646 7.86508 6.69337 7.97034 6.76902 8.04599C6.84533 8.12231 6.94993 8.16902 7.0644 8.16902H8.37158C8.48736 8.16902 8.59262 8.12231 8.66696 8.04731L8.66827 8.04599C8.74327 7.971 8.78998 7.8664 8.78998 7.75061V6.4441C8.78998 6.32963 8.74261 6.22437 8.66696 6.14872C8.5913 6.07306 8.48605 6.02569 8.37158 6.02569Z"/>
</mask>
<path d="M3.92108 7.51902C3.68886 7.51902 3.50005 7.33021 3.50005 7.09798C3.50005 6.86576 3.68886 6.67695 3.92108 6.67695H5.80327V6.44472C5.80327 6.09803 5.94537 5.78225 6.17365 5.55397C6.40193 5.32568 6.71771 5.18359 7.0644 5.18359H8.37158C8.71827 5.18359 9.03405 5.32569 9.26233 5.55397C9.49062 5.78225 9.63271 6.09803 9.63271 6.44472V6.67695H19.0783C19.3106 6.67695 19.4994 6.86576 19.4994 7.09798C19.4994 7.33021 19.3106 7.51902 19.0783 7.51902H9.63271V7.75124C9.63271 8.09597 9.49061 8.41174 9.26233 8.64067L9.26102 8.64198C9.03142 8.87092 8.7163 9.01236 8.37159 9.01236H7.06442C6.71772 9.01236 6.40195 8.87026 6.17366 8.64198C5.94538 8.41371 5.80329 8.09792 5.80329 7.75123V7.519L3.92108 7.51902ZM10.8464 14.4285H12.1536C12.5003 14.4285 12.8161 14.5706 13.0443 14.7989C13.2726 15.0272 13.4147 15.3429 13.4147 15.6896V15.9219H19.079C19.3112 15.9219 19.5 16.1107 19.5 16.3429C19.5 16.5751 19.3112 16.7639 19.079 16.7639H13.4147V16.9962C13.4147 17.3429 13.2726 17.6586 13.0443 17.8869C12.8161 18.1152 12.5003 18.2573 12.1536 18.2573H10.8464C10.4997 18.2573 10.1839 18.1152 9.95566 17.8869C9.72737 17.6586 9.58528 17.3429 9.58528 16.9962V16.7639H3.92171C3.68948 16.7639 3.50067 16.5751 3.50067 16.3429C3.50067 16.1107 3.68948 15.9219 3.92171 15.9219H9.58528V15.6896C9.58528 15.3449 9.72738 15.0291 9.95566 14.8002L9.95697 14.7989C10.1866 14.57 10.5017 14.4285 10.8464 14.4285ZM12.1536 15.2706H10.8464C10.7306 15.2706 10.626 15.3173 10.551 15.3923L10.5497 15.3936C10.4747 15.4686 10.428 15.5732 10.428 15.689V16.9955C10.428 17.11 10.4754 17.2152 10.551 17.2909C10.6267 17.3665 10.7319 17.4139 10.8464 17.4139H12.1536C12.2681 17.4139 12.3733 17.3665 12.449 17.2909C12.5246 17.2152 12.572 17.11 12.572 16.9955V15.689C12.572 15.5745 12.5246 15.4693 12.449 15.3936C12.3727 15.3173 12.2681 15.2706 12.1536 15.2706ZM15.9356 10.6478H14.6285C14.514 10.6478 14.4087 10.6952 14.3331 10.7708C14.2574 10.8465 14.2101 10.9517 14.2101 11.0662V12.3727C14.2101 12.4872 14.2574 12.5924 14.3331 12.6681C14.4094 12.7444 14.514 12.7911 14.6285 12.7911H15.9356C16.0514 12.7911 16.156 12.7444 16.231 12.6694L16.2323 12.6681C16.3073 12.5931 16.3541 12.4885 16.3541 12.3727V11.0662C16.3541 10.9504 16.3073 10.8458 16.2323 10.7708L16.231 10.7695C16.156 10.6945 16.0514 10.6478 15.9356 10.6478ZM14.6285 9.80573H15.9356C16.2804 9.80573 16.5948 9.94717 16.8238 10.1755L16.8251 10.1768C17.0547 10.4064 17.1961 10.7215 17.1961 11.0669V11.2991H19.0783C19.3105 11.2991 19.4993 11.4879 19.4993 11.7201C19.4993 11.9524 19.3105 12.1412 19.0783 12.1412H17.1961V12.3734C17.1961 12.7181 17.0547 13.0326 16.8264 13.2615L16.8251 13.2628C16.5955 13.4924 16.2804 13.6338 15.935 13.6338H14.6278C14.2811 13.6338 13.9653 13.4917 13.737 13.2635C13.5088 13.0352 13.3667 12.7194 13.3667 12.3727V12.1405H3.92103C3.68881 12.1405 3.5 11.9517 3.5 11.7195C3.5 11.4872 3.68881 11.2984 3.92103 11.2984H13.3667V11.0662C13.3667 10.7195 13.5088 10.4037 13.737 10.1754C13.9653 9.94716 14.2811 9.80506 14.6278 9.80506L14.6285 9.80573ZM8.37158 6.02569H7.0644C6.94993 6.02569 6.84467 6.07306 6.76902 6.14872C6.69337 6.22437 6.646 6.32963 6.646 6.4441V7.75061C6.646 7.86508 6.69337 7.97034 6.76902 8.04599C6.84533 8.12231 6.94993 8.16902 7.0644 8.16902H8.37158C8.48736 8.16902 8.59262 8.12231 8.66696 8.04731L8.66827 8.04599C8.74327 7.971 8.78998 7.8664 8.78998 7.75061V6.4441C8.78998 6.32963 8.74261 6.22437 8.66696 6.14872C8.5913 6.07306 8.48605 6.02569 8.37158 6.02569Z" fill="#848484"/>
<path d="M3.92108 7.51902C3.68886 7.51902 3.50005 7.33021 3.50005 7.09798C3.50005 6.86576 3.68886 6.67695 3.92108 6.67695H5.80327V6.44472C5.80327 6.09803 5.94537 5.78225 6.17365 5.55397C6.40193 5.32568 6.71771 5.18359 7.0644 5.18359H8.37158C8.71827 5.18359 9.03405 5.32569 9.26233 5.55397C9.49062 5.78225 9.63271 6.09803 9.63271 6.44472V6.67695H19.0783C19.3106 6.67695 19.4994 6.86576 19.4994 7.09798C19.4994 7.33021 19.3106 7.51902 19.0783 7.51902H9.63271V7.75124C9.63271 8.09597 9.49061 8.41174 9.26233 8.64067L9.26102 8.64198C9.03142 8.87092 8.7163 9.01236 8.37159 9.01236H7.06442C6.71772 9.01236 6.40195 8.87026 6.17366 8.64198C5.94538 8.41371 5.80329 8.09792 5.80329 7.75123V7.519L3.92108 7.51902ZM10.8464 14.4285H12.1536C12.5003 14.4285 12.8161 14.5706 13.0443 14.7989C13.2726 15.0272 13.4147 15.3429 13.4147 15.6896V15.9219H19.079C19.3112 15.9219 19.5 16.1107 19.5 16.3429C19.5 16.5751 19.3112 16.7639 19.079 16.7639H13.4147V16.9962C13.4147 17.3429 13.2726 17.6586 13.0443 17.8869C12.8161 18.1152 12.5003 18.2573 12.1536 18.2573H10.8464C10.4997 18.2573 10.1839 18.1152 9.95566 17.8869C9.72737 17.6586 9.58528 17.3429 9.58528 16.9962V16.7639H3.92171C3.68948 16.7639 3.50067 16.5751 3.50067 16.3429C3.50067 16.1107 3.68948 15.9219 3.92171 15.9219H9.58528V15.6896C9.58528 15.3449 9.72738 15.0291 9.95566 14.8002L9.95697 14.7989C10.1866 14.57 10.5017 14.4285 10.8464 14.4285ZM12.1536 15.2706H10.8464C10.7306 15.2706 10.626 15.3173 10.551 15.3923L10.5497 15.3936C10.4747 15.4686 10.428 15.5732 10.428 15.689V16.9955C10.428 17.11 10.4754 17.2152 10.551 17.2909C10.6267 17.3665 10.7319 17.4139 10.8464 17.4139H12.1536C12.2681 17.4139 12.3733 17.3665 12.449 17.2909C12.5246 17.2152 12.572 17.11 12.572 16.9955V15.689C12.572 15.5745 12.5246 15.4693 12.449 15.3936C12.3727 15.3173 12.2681 15.2706 12.1536 15.2706ZM15.9356 10.6478H14.6285C14.514 10.6478 14.4087 10.6952 14.3331 10.7708C14.2574 10.8465 14.2101 10.9517 14.2101 11.0662V12.3727C14.2101 12.4872 14.2574 12.5924 14.3331 12.6681C14.4094 12.7444 14.514 12.7911 14.6285 12.7911H15.9356C16.0514 12.7911 16.156 12.7444 16.231 12.6694L16.2323 12.6681C16.3073 12.5931 16.3541 12.4885 16.3541 12.3727V11.0662C16.3541 10.9504 16.3073 10.8458 16.2323 10.7708L16.231 10.7695C16.156 10.6945 16.0514 10.6478 15.9356 10.6478ZM14.6285 9.80573H15.9356C16.2804 9.80573 16.5948 9.94717 16.8238 10.1755L16.8251 10.1768C17.0547 10.4064 17.1961 10.7215 17.1961 11.0669V11.2991H19.0783C19.3105 11.2991 19.4993 11.4879 19.4993 11.7201C19.4993 11.9524 19.3105 12.1412 19.0783 12.1412H17.1961V12.3734C17.1961 12.7181 17.0547 13.0326 16.8264 13.2615L16.8251 13.2628C16.5955 13.4924 16.2804 13.6338 15.935 13.6338H14.6278C14.2811 13.6338 13.9653 13.4917 13.737 13.2635C13.5088 13.0352 13.3667 12.7194 13.3667 12.3727V12.1405H3.92103C3.68881 12.1405 3.5 11.9517 3.5 11.7195C3.5 11.4872 3.68881 11.2984 3.92103 11.2984H13.3667V11.0662C13.3667 10.7195 13.5088 10.4037 13.737 10.1754C13.9653 9.94716 14.2811 9.80506 14.6278 9.80506L14.6285 9.80573ZM8.37158 6.02569H7.0644C6.94993 6.02569 6.84467 6.07306 6.76902 6.14872C6.69337 6.22437 6.646 6.32963 6.646 6.4441V7.75061C6.646 7.86508 6.69337 7.97034 6.76902 8.04599C6.84533 8.12231 6.94993 8.16902 7.0644 8.16902H8.37158C8.48736 8.16902 8.59262 8.12231 8.66696 8.04731L8.66827 8.04599C8.74327 7.971 8.78998 7.8664 8.78998 7.75061V6.4441C8.78998 6.32963 8.74261 6.22437 8.66696 6.14872C8.5913 6.07306 8.48605 6.02569 8.37158 6.02569Z" stroke="#848484" stroke-width="0.4" mask="url(#path-1-outside-1_852_20934)"/>
</svg>
