<svg width="37" height="37" viewBox="0 0 37 37" fill="none" xmlns="http://www.w3.org/2000/svg">
<mask id="mask0_829_12144" style="mask-type:alpha" maskUnits="userSpaceOnUse" x="0" y="0" width="37" height="37">
<rect x="0.578125" y="0.0429688" width="36" height="36" fill="#D9D9D9"/>
</mask>
<g mask="url(#mask0_829_12144)">
<path d="M8.07812 31.543C7.25312 31.543 6.54688 31.2492 5.95938 30.6617C5.37188 30.0742 5.07812 29.368 5.07812 28.543V7.54297C5.07812 6.71797 5.37188 6.01172 5.95938 5.42422C6.54688 4.83672 7.25312 4.54297 8.07812 4.54297H29.0781C29.9031 4.54297 30.6094 4.83672 31.1969 5.42422C31.7844 6.01172 32.0781 6.71797 32.0781 7.54297V28.543C32.0781 29.368 31.7844 30.0742 31.1969 30.6617C30.6094 31.2492 29.9031 31.543 29.0781 31.543H8.07812ZM18.5781 28.543H29.0781V7.54297H18.5781V28.543Z" fill="white"/>
</g>
</svg>
